<?xml version="1.0" encoding="UTF-8" standalone="no"?>
<!-- Created with Inkscape (http://www.inkscape.org/) -->

<svg
   xmlns:dc="http://purl.org/dc/elements/1.1/"
   xmlns:cc="http://creativecommons.org/ns#"
   xmlns:rdf="http://www.w3.org/1999/02/22-rdf-syntax-ns#"
   xmlns:svg="http://www.w3.org/2000/svg"
   xmlns="http://www.w3.org/2000/svg"
   xmlns:sodipodi="http://sodipodi.sourceforge.net/DTD/sodipodi-0.dtd"
   xmlns:inkscape="http://www.inkscape.org/namespaces/inkscape"
   width="40"
   height="40"
   id="svg2"
   version="1.1"
   inkscape:version="0.48.1 r9760"
   sodipodi:docname="bug.svg"
   inkscape:export-filename="/Users/nadjibamar/Dropbox/KeesingGames/bug.png"
   inkscape:export-xdpi="90"
   inkscape:export-ydpi="90">
  <defs
     id="defs4" />
  <sodipodi:namedview
     id="base"
     pagecolor="#ffffff"
     bordercolor="#666666"
     borderopacity="1.0"
     inkscape:pageopacity="0.0"
     inkscape:pageshadow="2"
     inkscape:zoom="13.025"
     inkscape:cx="20"
     inkscape:cy="20"
     inkscape:document-units="px"
     inkscape:current-layer="layer1"
     showgrid="false"
     inkscape:window-width="1159"
     inkscape:window-height="739"
     inkscape:window-x="62"
     inkscape:window-y="0"
     inkscape:window-maximized="0" />
  <metadata
     id="metadata7">
    <rdf:RDF>
      <cc:Work
         rdf:about="">
        <dc:format>image/svg+xml</dc:format>
        <dc:type
           rdf:resource="http://purl.org/dc/dcmitype/StillImage" />
        <dc:title></dc:title>
      </cc:Work>
    </rdf:RDF>
  </metadata>
  <g
     inkscape:label="Layer 1"
     inkscape:groupmode="layer"
     id="layer1"
     transform="translate(0,-1012.3622)">
    <path
       sodipodi:type="arc"
       style="fill:#00ff00;fill-opacity:1;stroke:#000000;stroke-opacity:1"
       id="path2985"
       sodipodi:cx="23.877159"
       sodipodi:cy="19.808062"
       sodipodi:rx="17.044146"
       sodipodi:ry="10.825336"
       d="m 40.921305,19.808062 a 17.044146,10.825336 0 1 1 -34.0882915,0 17.044146,10.825336 0 1 1 34.0882915,0 z"
       transform="matrix(0.77603578,0,0,0.91231606,5.7100136,1014.6856)" />
    <path
       style="fill:#ffff00;fill-opacity:1;stroke:#000000;stroke-width:0.07677543000000001;stroke-opacity:1"
       d="m 23.270633,1042.4038 c -1.334405,-0.051 -4.735136,-0.6707 -4.610818,-1.0618 0.876857,-2.7585 -1.797515,-6.7963 -1.805425,-10.0009 -0.0067,-2.7352 9.406375,-0.7574 5.793409,-6.2089 -0.285519,-0.4308 -1.367531,-1.692 -1.351927,-1.7076 0.04561,-0.046 2.827163,-0.44 3.548655,-0.3155 l 4.990403,1.0383 -2.968106,4.5182 c -7.509957,11.432 7.540673,1.733 6.424837,5.4978 -0.317253,1.0704 -4.117634,7.4643 -4.248469,7.5958 -0.304799,0.3064 -4.10624,0.7082 -5.772559,0.6446 z"
       id="path2997"
       inkscape:connector-curvature="0"
       sodipodi:nodetypes="sscssscssss" />
    <path
       style="fill:none;stroke:#000000;stroke-width:1px;stroke-linecap:butt;stroke-linejoin:miter;stroke-opacity:1"
       d="m 16.506718,1024.723 c -2.322703,-0.9638 -2.249128,-2.6088 -2.763916,-4.3762 3.723039,-1.1497 6.511318,-2.4455 3.761996,-4.6065"
       id="path2999"
       inkscape:connector-curvature="0"
       sodipodi:nodetypes="ccc" />
    <path
       style="fill:none;stroke:#000000;stroke-width:1px;stroke-linecap:butt;stroke-linejoin:miter;stroke-opacity:1"
       d="m 23.877159,1022.6501 c -1.077154,-2.201 -2.006455,-3.362 -2.149712,-4.7601 2.145867,-0.6263 5.849351,0.2184 4.606526,-3.6084"
       id="path3001"
       inkscape:connector-curvature="0"
       sodipodi:nodetypes="ccc" />
    <path
       style="fill:none;stroke:#000000;stroke-width:1px;stroke-linecap:butt;stroke-linejoin:miter;stroke-opacity:1"
       d="m 30.479847,1024.0321 c -0.947842,-1.6704 -4.408252,-2.998 -1.305183,-5.2208 4.451856,0.8299 6.831376,0.1919 6.372361,-2.4568"
       id="path3003"
       inkscape:connector-curvature="0"
       sodipodi:nodetypes="ccc" />
    <path
       style="fill:none;stroke:#000000;stroke-width:1px;stroke-linecap:butt;stroke-linejoin:miter;stroke-opacity:1"
       d="m 16.122841,1040.6924 c -2.389119,1.3981 -3.992569,2.7382 -3.761996,5.1439 6.588675,-1.6038 3.029005,2.3577 3.992322,3.8388"
       id="path3005"
       inkscape:connector-curvature="0"
       sodipodi:nodetypes="ccc" />
    <path
       style="fill:none;stroke:#000000;stroke-width:1px;stroke-linecap:butt;stroke-linejoin:miter;stroke-opacity:1"
       d="m 23.262955,1042.7652 c -0.302012,1.2823 -3.518706,1.8748 -2.763914,4.2995 2.247654,-0.031 4.411339,0.09 4.452975,4.0691"
       id="path3007"
       inkscape:connector-curvature="0"
       sodipodi:nodetypes="ccc" />
    <path
       style="fill:none;stroke:#000000;stroke-width:1px;stroke-linecap:butt;stroke-linejoin:miter;stroke-opacity:1"
       d="m 30.326296,1041.6137 c 1.027689,-0.082 -1.277823,2.9478 -1.381958,5.3742 2.301153,-0.053 5.306768,-1.6907 5.297504,3.4549"
       id="path3009"
       inkscape:connector-curvature="0"
       sodipodi:nodetypes="ccc" />
    <g
       id="g3034"
       transform="translate(-0.61420312,-0.23032633)">
      <path
         transform="translate(0,1012.3622)"
         d="m 11.516315,13.934741 c 0,2.310903 -1.9249178,4.184261 -4.2994242,4.184261 -2.3745064,0 -4.2994242,-1.873358 -4.2994242,-4.184261 0,-2.310903 1.9249178,-4.1842608 4.2994242,-4.1842608 2.3745064,0 4.2994242,1.8733578 4.2994242,4.1842608 z"
         sodipodi:ry="4.1842608"
         sodipodi:rx="4.2994242"
         sodipodi:cy="13.934741"
         sodipodi:cx="7.2168908"
         id="path3011"
         style="fill:#ddff55;fill-opacity:1;stroke:#000000;stroke-opacity:1"
         sodipodi:type="arc" />
      <path
         sodipodi:type="arc"
         style="fill:#ddff55;fill-opacity:1;stroke:#000000;stroke-opacity:1"
         id="path3028"
         sodipodi:cx="7.2168908"
         sodipodi:cy="13.934741"
         sodipodi:rx="4.2994242"
         sodipodi:ry="4.1842608"
         d="m 11.516315,13.934741 c 0,2.310903 -1.9249178,4.184261 -4.2994242,4.184261 -2.3745064,0 -4.2994242,-1.873358 -4.2994242,-4.184261 0,-2.310903 1.9249178,-4.1842608 4.2994242,-4.1842608 2.3745064,0 4.2994242,1.8733578 4.2994242,4.1842608 z"
         transform="translate(-0.84452975,1023.8785)" />
      <path
         transform="translate(-0.2303263,1011.9015)"
         d="m 8.7523992,14.433782 c 0,0.763234 -0.6187236,1.381957 -1.3819578,1.381957 -0.7632342,0 -1.3819577,-0.618723 -1.3819577,-1.381957 0,-0.763235 0.6187235,-1.381958 1.3819577,-1.381958 0.7632342,0 1.3819578,0.618723 1.3819578,1.381958 z"
         sodipodi:ry="1.3819578"
         sodipodi:rx="1.3819578"
         sodipodi:cy="14.433782"
         sodipodi:cx="7.3704414"
         id="path3030"
         style="fill:#000000;fill-opacity:1;stroke:#000000;stroke-opacity:1"
         sodipodi:type="arc" />
      <path
         sodipodi:type="arc"
         style="fill:#000000;fill-opacity:1;stroke:#000000;stroke-opacity:1"
         id="path3032"
         sodipodi:cx="7.3704414"
         sodipodi:cy="14.433782"
         sodipodi:rx="1.3819578"
         sodipodi:ry="1.3819578"
         d="m 8.7523992,14.433782 c 0,0.763234 -0.6187236,1.381957 -1.3819578,1.381957 -0.7632342,0 -1.3819577,-0.618723 -1.3819577,-1.381957 0,-0.763235 0.6187235,-1.381958 1.3819577,-1.381958 0.7632342,0 1.3819578,0.618723 1.3819578,1.381958 z"
         transform="translate(-1.0748561,1023.341)" />
    </g>
    <path
       style="fill:none;stroke:#000000;stroke-width:1px;stroke-linecap:butt;stroke-linejoin:miter;stroke-opacity:1"
       d="M 12.360845,15.815739 10.59501,15.12476"
       id="path3040"
       inkscape:connector-curvature="0"
       transform="translate(0,1012.3622)"
       sodipodi:nodetypes="cc" />
    <path
       style="fill:none;stroke:#000000;stroke-width:1px;stroke-linecap:butt;stroke-linejoin:miter;stroke-opacity:1"
       d="m 11.59309,23.877159 -1.458733,0.767755"
       id="path3042"
       inkscape:connector-curvature="0"
       transform="translate(0,1012.3622)"
       sodipodi:nodetypes="cc" />
  </g>
</svg>
