<?xml version="1.0" encoding="UTF-8" standalone="no"?>
<!-- Created with Inkscape (http://www.inkscape.org/) -->

<svg
   xmlns:dc="http://purl.org/dc/elements/1.1/"
   xmlns:cc="http://creativecommons.org/ns#"
   xmlns:rdf="http://www.w3.org/1999/02/22-rdf-syntax-ns#"
   xmlns:svg="http://www.w3.org/2000/svg"
   xmlns="http://www.w3.org/2000/svg"
   xmlns:sodipodi="http://sodipodi.sourceforge.net/DTD/sodipodi-0.dtd"
   xmlns:inkscape="http://www.inkscape.org/namespaces/inkscape"
   width="38"
   height="38"
   id="svg2"
   version="1.1"
   inkscape:version="0.48.1 r9760"
   sodipodi:docname="New document 1">
  <defs
     id="defs4" />
  <sodipodi:namedview
     id="base"
     pagecolor="#ffffff"
     bordercolor="#666666"
     borderopacity="1.0"
     inkscape:pageopacity="0.0"
     inkscape:pageshadow="2"
     inkscape:zoom="1"
     inkscape:cx="16.07755"
     inkscape:cy="31.219491"
     inkscape:document-units="px"
     inkscape:current-layer="layer1"
     showgrid="false"
     inkscape:window-width="896"
     inkscape:window-height="715"
     inkscape:window-x="58"
     inkscape:window-y="0"
     inkscape:window-maximized="0" />
  <metadata
     id="metadata7">
    <rdf:RDF>
      <cc:Work
         rdf:about="">
        <dc:format>image/svg+xml</dc:format>
        <dc:type
           rdf:resource="http://purl.org/dc/dcmitype/StillImage" />
        <dc:title></dc:title>
      </cc:Work>
    </rdf:RDF>
  </metadata>
  <g
     inkscape:label="Layer 1"
     inkscape:groupmode="layer"
     id="layer1"
     transform="translate(0,-1014.3622)">
    <path
       style="fill:#ffff00;fill-opacity:1;stroke:#000000;stroke-width:0.07645875;stroke-opacity:1"
       d="M 13.923651,36.763613 C 10.370458,36.550417 6.7853791,35.646791 4.9441298,34.500307 2.5135475,32.986866 1.3435072,29.793167 1.6365729,25.472123 c 0.097884,-1.443226 0.3736823,-2.991201 0.6256809,-3.51176 0.2008008,-0.4148 1.1247184,-1.28198 2.1313997,-2.000513 0.6568929,-0.468866 1.1422208,-0.719643 2.9370788,-1.517631 3.3140387,-1.473412 4.3191737,-1.859261 5.9481377,-2.283361 1.265791,-0.329547 2.655625,-1.12182 3.310916,-1.887381 0.147481,-0.172296 0.340284,-0.505232 0.428452,-0.739857 C 17.440959,12.406722 16.839767,10.761074 15.696553,9.9137596 15.43186,9.7175771 14.99165,9.3815409 14.71831,9.1670122 13.888858,8.5160233 13.147765,8.2124269 12.172301,8.1240135 11.465787,8.059977 9.2251224,8.23027 8.3835132,8.4119656 7.1957366,8.6683955 5.9487304,9.2031451 5.072977,9.8316123 4.4770451,10.259271 4.0401158,10.415584 3.4406439,10.415584 2.8597671,10.415584 2.2171722,10.196698 2.1298278,9.9690813 2.0632119,9.7954833 2.5023982,9.3619637 3.0310002,9.079537 3.5566996,8.7986609 4.2796713,8.1669257 4.4491039,7.8403929 4.6176665,7.5155368 4.5966838,6.9298227 4.4054546,6.6219561 4.2098311,6.3070151 3.7714102,5.8932941 3.2907139,5.5700184 3.0820955,5.4297192 2.7816675,5.1977165 2.6230961,5.0544568 2.2556751,4.722514 2.2834334,4.6683817 3.1515556,4.0238916 4.7809044,2.8142702 6.8999056,2.009867 9.4213843,1.6437747 10.161784,1.5362764 10.294617,1.5400781 11.944523,1.7159857 c 2.15435,0.2296898 3.093574,0.3665292 4.145344,0.6039523 2.287236,0.5163129 3.639835,1.2862092 4.473864,2.546512 0.11175,0.1688657 0.605982,0.6665451 1.098292,1.1059541 0.492311,0.4394091 1.02465,0.9870113 1.182976,1.2168939 0.422019,0.6127516 0.714975,1.4023842 0.852127,2.2968125 0.06662,0.43447 0.155232,0.9366675 0.196912,1.1159925 0.04168,0.179326 0.07578,0.446623 0.07578,0.593991 0,0.669037 -0.727599,2.181528 -2.014077,4.18675 -1.723262,2.686032 -2.867693,3.963908 -4.325384,4.829741 -1.080674,0.641894 -1.288087,0.729467 -1.727705,0.729467 -0.858792,0 -2.024697,0.372796 -2.981124,0.953209 -0.294366,0.178638 -0.724447,0.419781 -0.955734,0.535874 -0.88983,0.446641 -1.344736,0.956348 -2.3217651,2.601461 -0.7153636,1.204522 -0.9185351,1.804007 -0.8754232,2.583051 0.037773,0.682568 0.2036664,1.043613 0.7102288,1.545721 0.9716015,0.963057 3.4940535,2.088286 5.5070795,2.456627 0.92253,0.168803 3.730931,0.194004 5.008049,0.04494 0.441549,-0.05154 1.528354,-0.144438 2.415121,-0.206445 3.359938,-0.234945 4.8735,-0.744294 8.51848,-2.866669 0.777968,-0.45299 1.620926,-0.940732 1.87324,-1.083871 0.432846,-0.245556 0.481292,-0.303312 0.857883,-1.022739 0.804392,-1.536683 1.34387,-3.180648 1.446129,-4.406823 0.05037,-0.604018 -0.05582,-2.330968 -0.208457,-3.389809 -0.06445,-0.447089 -0.27336,-1.159619 -0.560457,-1.911528 -0.130454,-0.341661 0.26964,0.247711 0.596895,0.879276 0.426218,0.822554 0.870682,1.968414 1.275264,3.287726 0.300421,0.979653 0.318545,1.094464 0.35604,2.255534 0.07838,2.42701 -0.454386,4.095701 -1.97591,6.188836 -1.4935,2.054582 -1.978945,2.604773 -3.018606,3.421223 -1.903468,1.494797 -2.876458,2.042997 -4.993804,2.813593 -0.942156,0.342893 -1.286482,0.42683 -2.370222,0.577794 -3.78927,0.527841 -7.499137,0.731551 -10.281909,0.564581 l 0,0 z"
       id="path2991"
       inkscape:connector-curvature="0"
       transform="translate(0,1014.3622)" />
    <path
       style="fill:#ffffff;fill-opacity:1;stroke:#000000;stroke-width:0.0540645;stroke-opacity:1"
       d="m 7.7866299,1021.3232 c -0.7069442,-0.1999 -1.3728284,-0.6245 -1.8796959,-1.1986 -0.819067,-0.9278 -1.0871269,-2.1965 -0.6746508,-3.1929 0.9249621,-2.2347 3.9415275,-2.5382 5.6588288,-0.5693 0.399379,0.4579 0.677978,0.9864 0.814474,1.5453 0.09672,0.396 0.0781,1.0678 -0.04044,1.4584 -0.317061,1.0451 -1.283811,1.8515 -2.455768,2.0485 -0.2754262,0.046 -1.129883,-0.01 -1.4227565,-0.091 l 0,0 z"
       id="path3003"
       inkscape:connector-curvature="0" />
    <path
       sodipodi:type="arc"
       style="fill:#000000;fill-opacity:1;stroke:#000000;stroke-opacity:1"
       id="path3005"
       sodipodi:cx="8.434062"
       sodipodi:cy="3.9663959"
       sodipodi:rx="1.0272255"
       sodipodi:ry="0.94612879"
       d="m 9.4612875,3.9663959 a 1.0272255,0.94612879 0 1 1 -2.054451,0 1.0272255,0.94612879 0 1 1 2.054451,0 z"
       transform="translate(0,1014.3622)" />
  </g>
</svg>
